<?xml version="1.0" standalone="no"?><!DOCTYPE svg PUBLIC "-//W3C//DTD SVG 1.1//EN" "http://www.w3.org/Graphics/SVG/1.1/DTD/svg11.dtd"><svg t="1684481407989" class="icon" viewBox="0 0 1286 1024" version="1.1" xmlns="http://www.w3.org/2000/svg" p-id="2562" xmlns:xlink="http://www.w3.org/1999/xlink" width="251.171875" height="200"><path d="M1024 1024 261.605839 1024c-143.883212 0-261.605839-117.722628-261.605839-261.605839L0 261.605839c0-143.883212 117.722628-261.605839 261.605839-261.605839l762.394161 0c143.883212 0 261.605839 117.722628 261.605839 261.605839l0 500.788321C1285.605839 906.277372 1167.883212 1024 1024 1024zM261.605839 74.744526c-102.773723 0-186.861314 84.087591-186.861314 186.861314l0 500.788321c0 102.773723 84.087591 186.861314 186.861314 186.861314l762.394161 0c102.773723 0 186.861314-84.087591 186.861314-186.861314L1210.861314 261.605839c0-102.773723-84.087591-186.861314-186.861314-186.861314L261.605839 74.744526z" p-id="2563"></path><path d="M642.80292 689.518248c-57.927007 0-115.854015-22.423358-158.832117-65.40146L42.978102 183.124088c-14.948905-14.948905-14.948905-37.372263 0-52.321168 14.948905-14.948905 37.372263-14.948905 52.321168 0l440.992701 440.992701c57.927007 57.927007 153.226277 57.927007 213.021898 0L1192.175182 130.80292c14.948905-14.948905 37.372263-14.948905 52.321168 0 14.948905 14.948905 14.948905 37.372263 0 52.321168L801.635036 624.116788C758.656934 668.963504 700.729927 689.518248 642.80292 689.518248z" p-id="2564"></path><path d="M69.138686 900.671533c-9.343066 0-18.686131-3.737226-26.160584-11.211679-14.948905-14.948905-14.948905-37.372263 0-52.321168l353.167883-353.167883c14.948905-14.948905 37.372263-14.948905 52.321168 0 14.948905 14.948905 14.948905 37.372263 0 52.321168L95.29927 889.459854C87.824818 896.934307 78.481752 900.671533 69.138686 900.671533z" p-id="2565"></path><path d="M1218.335766 900.671533c-9.343066 0-18.686131-3.737226-26.160584-11.211679l-355.036496-353.167883c-14.948905-14.948905-14.948905-37.372263 0-52.321168 14.948905-14.948905 37.372263-14.948905 52.321168 0l355.036496 353.167883c14.948905 14.948905 14.948905 37.372263 0 52.321168C1237.021898 896.934307 1227.678832 900.671533 1218.335766 900.671533z" p-id="2566"></path></svg>